#!OML:ASF G:\ViconDB\ViconDB\414\test\team2\shane.ASF
:FULLY-SPECIFIED
:DEGREES
214
root 3.12265 16.6844 9.06181 -52.2799 74.9748 -46.0672
lowerback 7.48388 -2.18599 4.91559
upperback 2.8676 -2.32131 4.5049
thorax -1.23516 -1.08767 2.09504
lowerneck -13.7541 -6.21574 -10.6306
upperneck 22.1319 -7.62573 6.89835
head 9.99432 -3.60307 3.21151
rclavicle 6.47727e-014 -3.18055e-014
rhumerus -44.7253 -15.7981 -68.1149
rradius 20.0351
rwrist 53.5775
rhand -29.2116 -14.9424
rfingers 7.12502
rthumb -2.55605 -44.9068
lclavicle 6.47727e-014 -3.18055e-014
lhumerus -22.7984 -15.7227 96.8428
lradius 28.8397
lwrist -22.0041
lhand -40.6655 6.50892
lfingers 7.12502
lthumb -13.6093 36.0441
rfemur -4.74647 -21.6065 20.0696
rtibia 27.6619
rfoot -17.0658 14.9636
rtoes -5.34359
lfemur 14.1541 -7.27664 -5.60551
ltibia 39.6479
lfoot -6.04803 -33.9639
ltoes -15.4986
215
root 3.2282 16.7092 9.12654 -54.4112 75.4408 -48.1688
lowerback 7.7397 -2.06674 5.18244
upperback 2.9229 -2.11954 4.47018
thorax -1.33029 -0.983534 1.90125
lowerneck -13.6711 -6.29685 -10.5512
upperneck 21.7813 -7.81506 7.14623
head 9.87873 -3.65964 3.25781
rclavicle -2.086e-014 1.90833e-014
rhumerus -43.9145 -16.0715 -68.7212
rradius 20.0074
rwrist 53.6058
rhand -29.5005 -14.8584
rfingers 7.12502
rthumb -2.83506 -44.8193
lclavicle -2.086e-014 1.90833e-014
lhumerus -23.2116 -15.9973 96.8412
lradius 28.0974
lwrist -22.0687
lhand -40.5759 6.863
lfingers 7.12502
lthumb -13.5229 36.4039
rfemur -3.8366 -22.1132 19.9594
rtibia 27.0258
rfoot -17.1166 14.6641
rtoes -5.83126
lfemur 12.2594 -6.14469 -4.74747
ltibia 43.0477
lfoot -8.49499 -32.0914
ltoes -16.9096
216
root 3.33468 16.7338 9.19268 -55.8972 75.9829 -49.6244
lowerback 7.95067 -1.87972 5.20132
upperback 2.97312 -1.85345 4.4032
thorax -1.39658 -0.849821 1.80297
lowerneck -13.5609 -6.40915 -10.5198
upperneck 21.4805 -8.03748 7.39063
head 9.78241 -3.73678 3.30714
rclavicle -3.58247e-014 2.08724e-015
rhumerus -42.8943 -15.4958 -69.8164
rradius 19.8943
rwrist 53.2706
rhand -29.7033 -15.0568
rfingers 7.12502
rthumb -3.0309 -45.015
lclavicle -3.58247e-014 2.08724e-015
lhumerus -23.5713 -16.2797 96.84
lradius 27.3779
lwrist -21.9847
lhand -40.3106 6.89018
lfingers 7.12502
lthumb -13.2672 36.4479
rfemur -2.9201 -22.5013 19.6316
rtibia 26.344
rfoot -17.3189 14.4743
rtoes -7.18952
lfemur 10.4081 -4.87424 -4.19264
ltibia 46.1767
lfoot -10.9395 -29.8016
ltoes -17.7112
217
root 3.43447 16.76 9.2567 -58.7476 76.4713 -52.5268
lowerback 8.01451 -1.78069 5.52311
upperback 3.08965 -1.69367 4.35064
thorax -1.32027 -0.763106 1.55437
lowerneck -13.6437 -6.41848 -10.2616
upperneck 21.2308 -8.102 7.42898
head 9.70526 -3.74113 3.26474
rclavicle 2.88362e-014 -3.18055e-015
rhumerus -41.768 -15.8526 -70.4635
rradius 19.7852
rwrist 53.4767
rhand -29.6684 -14.9453
rfingers 7.12502
rthumb -2.99727 -44.9039
lclavicle 2.88362e-014 -3.18055e-015
lhumerus -23.7979 -16.3933 96.6654
lradius 26.5796
lwrist -22.1766
lhand -39.9703 6.4444
lfingers 7.12502
lthumb -12.9392 36.0232
rfemur -2.04877 -22.9795 19.594
rtibia 25.5894
rfoot -17.1276 14.1313
rtoes -5.97599
lfemur 8.41561 -3.76475 -3.39429
ltibia 49.0465
lfoot -12.4358 -27.873
ltoes -16.1919
218
root 3.53893 16.7844 9.31564 -59.9865 76.7576 -53.8134
lowerback 7.92858 -1.55222 5.70412
upperback 3.2574 -1.39285 4.27395
thorax -1.10035 -0.604376 1.34133
lowerneck -13.674 -6.48394 -10.0997
upperneck 20.9028 -8.25458 7.59333
head 9.61002 -3.78325 3.27062
rclavicle 4.32108e-014 -3.16068e-014
rhumerus -40.6592 -17.7004 -69.9734
rradius 18.9981
rwrist 57.4424
rhand -30.1327 -14.6401
rfingers 7.12502
rthumb -3.44562 -44.592
lclavicle 4.32108e-014 -3.16068e-014
lhumerus -23.9884 -16.2826 96.4142
lradius 25.816
lwrist -22.8007
lhand -39.8357 6.69789
lfingers 7.12502
lthumb -12.8094 36.2849
rfemur -1.24778 -23.2305 19.4789
rtibia 24.8531
rfoot -17.1425 13.9067
rtoes -6.3127
lfemur 6.70683 -2.40059 -2.77692
ltibia 51.5794
lfoot -13.7551 -25.909
ltoes -15.3323
219
root 3.63716 16.8061 9.37832 -61.9382 77.0814 -55.8628
lowerback 7.797 -1.36563 5.83974
upperback 3.42913 -1.15448 4.22809
thorax -0.848175 -0.475513 1.19203
lowerneck -13.6079 -6.53233 -9.86486
upperneck 20.5165 -8.36333 7.58336
head 9.46125 -3.82136 3.21134
rclavicle 2.55128e-014 -3.26007e-014
rhumerus -39.3045 -18.188 -70.6605
rradius 18.823
rwrist 58.3289
rhand -30.1984 -14.6736
rfingers 7.12502
rthumb -3.50909 -44.6245
lclavicle 2.55128e-014 -3.26007e-014
lhumerus -24.2384 -16.6334 96.2755
lradius 25.3732
lwrist -21.7866
lhand -39.5767 6.65254
lfingers 7.12502
lthumb -12.5597 36.255
rfemur -0.516179 -23.2837 19.5301
rtibia 24.1704
rfoot -17.1449 13.3415
rtoes -6.61072
lfemur 4.78709 -1.08202 -2.06347
ltibia 53.7665
lfoot -14.7632 -24.4171
ltoes -14.9473
220
root 3.73127 16.8219 9.43882 -63.912 77.5363 -57.8139
lowerback 7.81931 -1.23486 5.77554
upperback 3.64161 -0.99413 4.13653
thorax -0.6373 -0.387145 1.11738
lowerneck -13.8673 -6.44092 -9.60518
upperneck 20.3694 -8.29779 7.71597
head 9.44492 -3.75215 3.21713
rclavicle 2.61402e-014 1.5704e-014
rhumerus -37.6554 -18.1807 -71.856
rradius 18.7436
rwrist 57.9589
rhand -30.0786 -14.7216
rfingers 7.12502
rthumb -3.39336 -44.6743
lclavicle 2.61402e-014 1.5704e-014
lhumerus -24.3602 -16.4536 95.8206
lradius 24.5475
lwrist -22.8525
lhand -39.6616 6.81035
lfingers 7.12502
lthumb -12.6416 36.4078
rfemur 0.313539 -23.5027 19.3194
rtibia 23.5722
rfoot -17.2395 12.9438
rtoes -6.66805
lfemur 3.13054 0.0998313 -1.63784
ltibia 55.6007
lfoot -15.9098 -23.0592
ltoes -15.0512
221
root 3.82481 16.8371 9.49674 -66.3788 78.385 -60.219
lowerback 7.74754 -1.10601 5.50615
upperback 3.88683 -0.866982 3.90353
thorax -0.340995 -0.316882 1.01204
lowerneck -14.1038 -6.34025 -9.21683
upperneck 20.2647 -8.21458 7.67948
head 9.42407 -3.68253 3.14613
rclavicle 7.11276e-015 -4.32357e-015
rhumerus -36.0374 -18.7577 -72.7179
rradius 18.5
rwrist 58.3953
rhand -30.0963 -14.6124
rfingers 7.12502
rthumb -3.41045 -44.5648
lclavicle 7.11276e-015 -4.32357e-015
lhumerus -24.66 -16.0892 95.3865
lradius 24.2237
lwrist -22.85
lhand -39.3904 6.8444
lfingers 7.12502
lthumb -12.3801 36.4578
rfemur 1.19565 -23.8032 18.683
rtibia 23.0668
rfoot -17.3595 12.4317
rtoes -6.54581
lfemur 1.48517 0.863834 -1.76347
ltibia 57.1292
lfoot -16.6407 -21.8194
ltoes -15.5309
222
root 3.93471 16.845 9.55208 -67.1593 78.6366 -60.8981
lowerback 7.49252 -0.848113 5.59446
upperback 4.19359 -0.557169 3.72922
thorax 0.123034 -0.145262 0.753984
lowerneck -14.4502 -6.22838 -8.92802
upperneck 20.269 -8.12374 7.78376
head 9.4724 -3.59829 3.14039
rclavicle 1.09021e-014 -1.85367e-014
rhumerus -34.3417 -18.8238 -73.976
rradius 18.4096
rwrist 58.4621
rhand -30.0475 -15.0008
rfingers 7.12502
rthumb -3.36328 -44.954
lclavicle 1.09021e-014 -1.85367e-014
lhumerus -25.1117 -16.7439 95.0932
lradius 23.7823
lwrist -22.282
lhand -39.4772 6.91169
lfingers 7.12502
lthumb -12.4637 36.52
rfemur 1.97958 -23.7008 18.4879
rtibia 22.6899
rfoot -17.7268 11.9365
rtoes -7.5706
lfemur 0.295411 2.00094 -1.44366
ltibia 58.3345
lfoot -17.4976 -20.877
ltoes -15.278
223
root 4.03052 16.8561 9.60589 -69.4958 79.015 -63.2492
lowerback 7.59521 -0.672297 5.61757
upperback 4.15461 -0.313774 3.62403
thorax 0.0317382 -0.0253038 0.614929
lowerneck -14.0646 -6.08469 -8.79572
upperneck 20.1558 -7.97821 7.81931
head 9.34294 -3.52428 3.15937
rclavicle 1.75055e-014 2.98798e-014
rhumerus -33.0818 -19.3707 -74.6949
rradius 18.2137
rwrist 58.9863
rhand -29.9799 -14.7734
rfingers 7.12502
rthumb -3.29808 -44.7276
lclavicle 1.75055e-014 2.98798e-014
lhumerus -25.9116 -16.7605 94.8887
lradius 23.3188
lwrist -22.2059
lhand -39.4261 7.09719
lfingers 7.12502
lthumb -12.4145 36.7085
rfemur 2.59386 -23.4574 18.4333
rtibia 22.3676
rfoot -17.8909 11.081
rtoes -7.5434
lfemur -1.32846 3.02389 -1.20529
ltibia 59.2714
lfoot -18.2319 -20.3648
ltoes -16.8803
224
root 4.12784 16.8614 9.65887 -71.9036 79.4239 -65.6291
lowerback 7.46063 -0.466235 5.57659
upperback 4.35515 -0.0622386 3.5347
thorax 0.321573 0.110751 0.526773
lowerneck -14.4005 -5.99862 -8.49539
upperneck 20.3714 -7.85053 7.55045
head 9.44349 -3.45885 3.02863
rclavicle -2.3792e-015 -8.16881e-015
rhumerus -31.459 -19.6006 -75.6525
rradius 18.143
rwrist 59.2677
rhand -29.837 -15.0036
rfingers 7.12502
rthumb -3.16007 -44.9599
lclavicle -2.3792e-015 -8.16881e-015
lhumerus -26.2899 -16.4873 94.5784
lradius 22.8492
lwrist -21.9393
lhand -39.602 7.18372
lfingers 7.12502
lthumb -12.5841 36.7847
rfemur 3.2092 -22.9402 18.3807
rtibia 22.1277
rfoot -18.1341 9.90558
rtoes -7.95482
lfemur -2.80639 4.00944 -1.07422
ltibia 59.9108
lfoot -18.8617 -20.1518
ltoes -16.5205
225
root 4.23231 16.8634 9.70911 -73.8433 80.0156 -67.3794
lowerback 7.75047 -0.239151 5.39944
upperback 4.36531 0.246324 3.30205
thorax 0.180891 0.260279 0.362349
lowerneck -14.3126 -5.8845 -8.202
upperneck 20.4893 -7.72821 7.38681
head 9.43722 -3.39434 2.94357
rclavicle -9.16273e-016 -1.9133e-015
rhumerus -30.191 -19.821 -76.5863
rradius 18.0702
rwrist 59.3867
rhand -30.2644 -15.0851
rfingers 7.12502
rthumb -3.57282 -45.0349
lclavicle -9.16273e-016 -1.9133e-015
lhumerus -27.1092 -16.5907 94.3658
lradius 22.5216
lwrist -21.3141
lhand -39.4946 7.73098
lfingers 7.12502
lthumb -12.4805 37.3383
rfemur 4.06578 -22.6114 17.888
rtibia 21.8769
rfoot -18.3258 9.1007
rtoes -8.03057
lfemur -3.93914 4.78982 -1.33192
ltibia 60.2421
lfoot -19.6568 -19.8692
ltoes -15.8226
226
root 4.33258 16.8614 9.75477 -75.9405 80.3331 -69.3858
lowerback 8.04084 -0.0404797 5.49835
upperback 4.31438 0.539794 3.1408
thorax -0.019762 0.404721 0.116635
lowerneck -14.1153 -5.76548 -7.9573
upperneck 20.5767 -7.58338 7.18731
head 9.39927 -3.3295 2.859
rclavicle -5.83309e-015 -1.52567e-014
rhumerus -28.8917 -19.7096 -77.6713
rradius 18.1628
rwrist 58.4857
rhand -30.3745 -14.8823
rfingers 7.12502
rthumb -3.67909 -44.8303
lclavicle -5.83309e-015 -1.52567e-014
lhumerus -28.1206 -16.4774 94.0884
lradius 22.3042
lwrist -20.6844
lhand -39.7738 7.4798
lfingers 7.12502
lthumb -12.7497 37.0705
rfemur 4.72657 -22.1817 17.7665
rtibia 21.6616
rfoot -18.3971 8.25481
rtoes -7.37993
lfemur -5.17601 5.52257 -1.42794
ltibia 60.2945
lfoot -20.2088 -19.7665
ltoes -15.4381
227
root 4.43742 16.8669 9.79918 -78.3849 80.7823 -71.7483
lowerback 8.2264 0.173681 5.48527
upperback 4.27613 0.834079 2.93984
thorax -0.147897 0.548637 -0.109067
lowerneck -14.0552 -5.5816 -7.8217
upperneck 20.7794 -7.35186 7.14171
head 9.43122 -3.21116 2.85591
rclavicle 1.34987e-014 4.14466e-014
rhumerus -27.6691 -19.4622 -78.7209
rradius 18.3282
rwrist 58.2427
rhand -30.2102 -15.0014
rfingers 7.12502
rthumb -3.52042 -44.9521
lclavicle 1.34987e-014 4.14466e-014
lhumerus -29.0025 -16.871 93.9956
lradius 21.8759
lwrist -19.2635
lhand -40.1702 7.25911
lfingers 7.12502
lthumb -13.1319 36.8256
rfemur 5.41342 -21.8439 17.4896
rtibia 21.4244
rfoot -18.5096 7.26903
rtoes -8.52587
lfemur -6.38475 6.07627 -1.73151
ltibia 60.0027
lfoot -20.7134 -19.8959
ltoes -15.5437
228
root 4.5446 16.871 9.84224 -80.658 81.2298 -73.9997
lowerback 8.32552 0.407047 5.36802
upperback 4.25863 1.13732 2.74064
thorax -0.206742 0.696881 -0.27557
lowerneck -14.0442 -5.45089 -7.50977
upperneck 20.9847 -7.17505 6.84255
head 9.46133 -3.13099 2.72647
rclavicle -6.16232e-015 -8.94531e-016
rhumerus -26.396 -19.2951 -79.7628
rradius 18.547
rwrist 57.899
rhand -30.3558 -14.9866
rfingers 7.12502
rthumb -3.66108 -44.9349
lclavicle -6.16232e-015 -8.94531e-016
lhumerus -29.6969 -16.4227 93.4603
lradius 21.4771
lwrist -19.636
lhand -39.7971 8.07091
lfingers 7.12502
lthumb -12.7722 37.6602
rfemur 6.02892 -21.6098 17.1983
rtibia 21.1846
rfoot -18.5177 6.43673
rtoes -10.0737
lfemur -7.57202 6.50501 -2.14261
ltibia 59.4679
lfoot -21.1257 -20.1932
ltoes -15.3599
